<svg xmlns="http://www.w3.org/2000/svg" viewBox="0 0 480 240" shape-rendering="crispEdges"><rect x="0" y="0" width="480" height="240" fill="#121d1a"/><rect x="0" y="200" width="480" height="40" fill="#17271f"/><rect x="28" y="28" width="4" height="12" fill="#c6ff3d"/><rect x="24" y="32" width="12" height="4" fill="#c6ff3d"/><rect x="438" y="32" width="4" height="12" fill="#627365"/><rect x="434" y="36" width="12" height="4" fill="#627365"/><rect x="404" y="166" width="4" height="12" fill="#c6ff3d"/><rect x="400" y="170" width="12" height="4" fill="#c6ff3d"/><rect x="60" y="146" width="4" height="12" fill="#627365"/><rect x="56" y="150" width="12" height="4" fill="#627365"/><rect x="250" y="25" width="4" height="12" fill="#627365"/><rect x="246" y="29" width="12" height="4" fill="#627365"/><path d="M0 200 L-96.0 240" stroke="#263d32"/><path d="M40 200 L-40.0 240" stroke="#263d32"/><path d="M80 200 L16.0 240" stroke="#263d32"/><path d="M120 200 L72.0 240" stroke="#263d32"/><path d="M160 200 L128.0 240" stroke="#263d32"/><path d="M200 200 L184.0 240" stroke="#263d32"/><path d="M240 200 L240.0 240" stroke="#263d32"/><path d="M280 200 L296.0 240" stroke="#263d32"/><path d="M320 200 L352.0 240" stroke="#263d32"/><path d="M360 200 L408.0 240" stroke="#263d32"/><path d="M400 200 L464.0 240" stroke="#263d32"/><path d="M440 200 L520.0 240" stroke="#263d32"/><path d="M480 200 L576.0 240" stroke="#263d32"/><path d="M0 214H480 M0 232H480" stroke="#263d32"/><rect x="0" y="198" width="480" height="2" fill="#c6ff3d"/><rect x="150" y="32" width="168" height="160" fill="#668541"/><rect x="158" y="32" width="152" height="28" fill="#c6ff3d"/><text x="184" y="52" fill="#162016" font-size="17" font-family="monospace" font-weight="bold">CODE CLUB</text><rect x="164" y="72" width="140" height="76" fill="#081713"/><text x="189" y="105" fill="#c6ff3d" font-size="22" font-family="monospace" font-weight="bold">&gt; PLAY</text><rect x="188" y="120" width="64" height="4" fill="#466740"/><rect x="138" y="156" width="192" height="32" fill="#b3bd8e"/><rect x="174" y="150" width="8" height="24" fill="#192920"/><rect x="166" y="144" width="24" height="12" fill="#ff6b4a"/><rect x="270" y="166" width="16" height="8" fill="#ff6b4a"/><rect x="294" y="166" width="16" height="8" fill="#ffc83d"/><rect x="150" y="188" width="168" height="18" fill="#486335"/><rect x="80" y="92" width="16" height="24" fill="#ffc83d"/><rect x="76" y="96" width="24" height="16" fill="#ffc83d"/><rect x="84" y="96" width="8" height="16" fill="#a87425"/><rect x="84" y="96" width="4" height="12" fill="#ffe597"/><rect x="384" y="120" width="16" height="24" fill="#ffc83d"/><rect x="380" y="124" width="24" height="16" fill="#ffc83d"/><rect x="388" y="124" width="8" height="16" fill="#a87425"/><rect x="388" y="124" width="4" height="12" fill="#ffe597"/></svg>